<?xml version="1.0" encoding="UTF-8"?>
<svg id="Icon_colour" data-name="Icon colour" xmlns="http://www.w3.org/2000/svg" viewBox="0 0 2000.5 2000">
  <defs>
    <style>
      .cls-1 {
        fill: #486ed9;
      }
    </style>
  </defs>
  <path class="cls-1" d="M1000,0C447.72,0,0,447.72,0,1000,0,1209.2,64.24,1403.39,174.07,1563.93c129.98,190.01,323.83,332.88,550.62,397.68,87.46,25.01,179.82,38.39,275.31,38.39,552.28,0,1000-447.72,1000-1000S1552.28,0,1000,0Zm457.92,1457.92c-170.71,0-319.63-93.48-398.33-232.01H84.16v-454.87h977.14c79.13-136.89,227.13-228.96,396.62-228.96,252.89,0,457.92,205.03,457.92,457.92s-205.03,457.92-457.92,457.92Z"/>
</svg>